<svg version="1.1" xmlns="http://www.w3.org/2000/svg" width="1024" height="1024">
<path d="M0 0 C337.92 0 675.84 0 1024 0 C1024 337.92 1024 675.84 1024 1024 C686.08 1024 348.16 1024 0 1024 C0 686.08 0 348.16 0 0 Z " fill="#FEFEFE" transform="translate(0,0)"/>
<path d="M0 0 C6.777 1.043 11.247 3.874 15.644 9.187 C18.667 13.541 20.787 18.358 22.998 23.162 C24.507 26.432 26.056 29.683 27.605 32.934 C28.07 33.91 28.07 33.91 28.544 34.907 C32.574 43.334 37.084 51.488 41.649 59.635 C43.392 62.755 45.117 65.884 46.84 69.016 C54.593 83.083 62.544 97.022 70.697 110.862 C72.11 113.263 73.519 115.666 74.926 118.07 C77.356 122.22 79.799 126.362 82.25 130.5 C82.973 131.722 82.973 131.722 83.711 132.969 C89.646 142.985 95.612 152.93 102.25 162.5 C102.753 163.227 103.255 163.953 103.773 164.702 C111.013 175.155 118.373 185.509 125.941 195.728 C127.249 197.499 128.55 199.276 129.848 201.055 C130.732 202.266 131.616 203.477 132.5 204.688 C132.948 205.302 133.396 205.916 133.858 206.549 C136.426 210.056 139.031 213.53 141.68 216.977 C157.299 237.359 170.779 258.91 183.403 281.25 C185.257 284.512 187.137 287.758 189.027 291 C199.76 309.412 210.216 327.995 219.625 347.125 C220.188 348.234 220.188 348.234 220.763 349.365 C223.135 354.322 223.721 358.002 223.25 363.5 C220.398 369.074 214.869 371.358 209.25 373.5 C200.136 375.583 190.844 375.835 181.543 376.162 C159.752 376.974 138.348 379.871 116.805 383.12 C114.22 383.504 111.634 383.872 109.046 384.237 C98.802 385.695 88.804 387.545 78.75 390 C77.51 390.295 76.27 390.59 74.992 390.895 C69.25 392.267 63.521 393.684 57.801 395.145 C46.388 398.004 30.326 401.668 19.004 397.227 C12.759 391.044 12.904 380.807 12.859 372.453 C12.873 370.666 12.873 370.666 12.887 368.844 C12.886 366.948 12.886 366.948 12.885 365.013 C12.888 362.357 12.896 359.702 12.914 357.046 C12.937 353.678 12.937 350.31 12.93 346.942 C12.926 343.68 12.938 340.418 12.949 337.156 C12.948 335.965 12.947 334.774 12.946 333.547 C13.108 314.219 13.108 314.219 16.677 309.689 C18.918 307.995 20.544 308.143 23.328 308.172 C24.325 308.177 25.321 308.182 26.348 308.188 C27.388 308.208 28.428 308.229 29.5 308.25 C30.525 308.255 31.55 308.26 32.605 308.266 C36.556 308.306 40.36 308.353 44.265 308.997 C49.12 309.703 53.969 309.676 58.867 309.705 C59.912 309.715 60.956 309.725 62.033 309.735 C65.468 309.767 68.904 309.792 72.34 309.816 C74.729 309.837 77.118 309.858 79.507 309.879 C85.782 309.934 92.057 309.984 98.332 310.032 C104.74 310.083 111.148 310.138 117.557 310.193 C130.121 310.301 142.686 310.402 155.25 310.5 C154.808 309.023 154.352 307.55 153.892 306.078 C153.639 305.258 153.387 304.437 153.128 303.591 C152.414 301.285 152.414 301.285 149.984 300.246 C149.082 300 148.18 299.754 147.25 299.5 C144.922 297.906 142.71 296.304 140.5 294.562 C139.884 294.078 139.268 293.594 138.633 293.095 C132.37 288.021 127.387 282.068 122.828 275.43 C118.388 269.396 112.158 267.803 105.25 265.5 C92.863 261.275 83.669 253.395 74.25 244.5 C73.438 243.764 72.626 243.028 71.789 242.27 C64.292 235.21 58.776 227.121 53.25 218.5 C52.648 217.569 52.648 217.569 52.035 216.62 C40.744 199.005 33.326 179.998 26.283 160.366 C24.659 155.861 22.971 151.382 21.258 146.91 C19.264 141.608 17.593 136.264 16.062 130.812 C13.624 122.159 10.454 113.81 7.197 105.435 C6.816 104.448 6.435 103.462 6.043 102.445 C5.698 101.564 5.353 100.682 4.997 99.774 C4.25 97.5 4.25 97.5 4.25 94.5 C3.59 94.5 2.93 94.5 2.25 94.5 C1.986 95.192 1.722 95.885 1.45 96.598 C-0.993 102.505 -4.071 108.134 -7 113.812 C-7.531 114.844 -7.531 114.844 -8.074 115.897 C-14.408 128.166 -21.137 140.144 -28.243 151.986 C-29.619 154.282 -30.982 156.584 -32.34 158.891 C-45.239 180.736 -59.874 202.346 -77.305 220.844 C-79.728 223.39 -79.728 223.39 -81.57 225.906 C-83.977 228.77 -86.613 231.038 -89.449 233.465 C-93.927 237.424 -98.097 241.704 -102.312 245.938 C-103.219 246.84 -104.126 247.743 -105.061 248.674 C-110.167 253.788 -115.06 259.004 -119.75 264.5 C-145.704 293.726 -145.704 293.726 -157.059 302.734 C-159.271 305.044 -160.367 307.634 -161.75 310.5 C-156.002 310.406 -150.255 310.3 -144.508 310.183 C-142.553 310.144 -140.599 310.11 -138.644 310.078 C-135.832 310.032 -133.019 309.974 -130.207 309.914 C-128.901 309.897 -128.901 309.897 -127.568 309.879 C-121.402 309.763 -121.402 309.763 -115.75 307.5 C-112.662 304.24 -110.872 300.951 -109.164 296.824 C-108.708 295.748 -108.251 294.673 -107.781 293.564 C-106.849 291.326 -105.919 289.086 -104.992 286.846 C-101.855 279.466 -98.581 272.813 -92.438 267.5 C-87.434 265.638 -82.752 265.887 -77.688 267.438 C-69.404 273.254 -63.629 282.409 -57.75 290.5 C-56.94 291.578 -56.13 292.656 -55.32 293.734 C-47.259 304.647 -44.633 315.488 -42.247 328.652 C-40.884 336.099 -38.964 343.26 -36.75 350.5 C-35.814 353.599 -34.902 356.704 -34 359.812 C-33.777 360.542 -33.554 361.271 -33.324 362.022 C-31.932 366.85 -30.317 372.558 -31.75 377.5 C-35.293 380.061 -38.005 380.92 -42.339 381.177 C-43.395 381.241 -44.451 381.306 -45.538 381.372 C-50.47 381.569 -55.392 381.662 -60.328 381.668 C-61.402 381.672 -62.476 381.676 -63.582 381.681 C-67.055 381.69 -70.527 381.69 -74 381.688 C-75.191 381.688 -76.382 381.688 -77.608 381.688 C-143.633 381.64 -143.633 381.64 -167.621 376.469 C-172.742 375.413 -177.722 375.141 -182.938 375 C-184.866 374.924 -186.794 374.844 -188.723 374.762 C-189.71 374.72 -190.698 374.678 -191.715 374.634 C-220.622 373.355 -220.622 373.355 -229.75 366.5 C-231.596 362.808 -231.442 359.454 -230.75 355.5 C-228.931 350.892 -226.605 346.602 -224.24 342.254 C-222.494 339.026 -220.786 335.779 -219.078 332.531 C-211.774 318.665 -204.314 304.903 -196.418 291.363 C-194.857 288.683 -193.304 285.999 -191.753 283.313 C-183.616 269.233 -175.314 255.314 -166.276 241.787 C-164.719 239.454 -163.175 237.113 -161.633 234.77 C-155.958 226.169 -150.141 217.694 -144.092 209.353 C-142.633 207.339 -141.182 205.32 -139.73 203.301 C-134.101 195.474 -128.422 187.688 -122.688 179.938 C-116.815 171.991 -111.065 163.969 -105.407 155.868 C-103.567 153.238 -101.717 150.615 -99.867 147.992 C-92.457 137.45 -85.303 126.81 -78.492 115.871 C-74.832 110 -70.979 104.264 -67.112 98.527 C-65.444 96.045 -63.787 93.556 -62.129 91.066 C-59.393 86.959 -56.649 82.857 -53.898 78.76 C-40.15 58.328 -40.15 58.328 -27.129 37.43 C-24.094 32.363 -20.842 27.438 -17.606 22.497 C-14.291 17.409 -11.219 12.237 -8.285 6.918 C-6.034 3.372 -4.237 0.77 0 0 Z " fill="#030303" transform="translate(514.75,234.5)"/>
<path d="M0 0 C3.557 0.155 5.492 0.602 8.312 2.812 C10.009 5.012 10.438 6.344 11 9 C12.744 8.493 12.744 8.493 14.523 7.977 C25.611 4.851 36.482 2.647 48 2 C49.196 1.928 49.196 1.928 50.417 1.854 C51.614 1.812 51.614 1.812 52.836 1.77 C53.561 1.741 54.286 1.712 55.033 1.683 C57.576 2.093 58.444 2.99 60 5 C60.062 6.937 60.062 6.937 59 9 C53.907 13.156 48.654 14.364 42.312 15.75 C41.363 15.97 40.414 16.191 39.436 16.418 C32.493 18 32.493 18 29 18 C32.962 23.207 37.455 27.065 42.683 30.933 C45.82 33.27 48.812 35.678 51.711 38.309 C52.629 39.136 52.629 39.136 53.566 39.98 C54.746 41.053 55.913 42.139 57.066 43.241 C60.099 45.98 61.608 46.982 65.754 47.176 C67.361 47.089 67.361 47.089 69 47 C70.996 48.996 72.415 50.721 74 53 C78.738 58.941 84.142 64.14 89.697 69.307 C93.54 73.025 95.595 75.923 97.2 81.002 C98.738 84.843 101.611 87.735 104.312 90.812 C153.491 148.711 188.983 223.912 199.575 299.117 C199.865 301.085 200.184 303.049 200.526 305.008 C202.07 314.006 202.442 322.898 202.625 332 C202.662 333.591 202.699 335.182 202.736 336.772 C202.841 341.515 202.923 346.257 203 351 C203.018 352.04 203.018 352.04 203.036 353.1 C203.329 370.198 202.8 386.995 201 404 C200.823 405.716 200.823 405.716 200.643 407.466 C198.041 432.572 193.063 455.846 185.885 480.008 C185.042 482.856 184.214 485.709 183.391 488.562 C181.103 496.431 178.778 504.15 175.457 511.656 C174.274 514.371 173.16 517.09 172.074 519.844 C162.843 543.162 151.062 564.644 138 586 C137.441 586.915 136.882 587.83 136.306 588.773 C126.194 605.246 115.206 621.011 103 636 C102.579 636.525 102.158 637.051 101.725 637.592 C94.823 646.168 87.193 654.014 79.438 661.812 C78.713 662.545 78.713 662.545 77.974 663.292 C71.33 669.992 64.392 676.133 57 682 C55.757 683.024 54.515 684.051 53.277 685.082 C38.861 696.931 23.231 706.837 7 716 C6.154 716.48 5.308 716.959 4.437 717.454 C-14.299 728.03 -33.401 736.614 -53.566 744.076 C-56.068 745.026 -58.54 746.034 -61.016 747.051 C-65.809 748.979 -70.649 750.493 -75.625 751.875 C-76.978 752.254 -76.978 752.254 -78.358 752.641 C-81.236 753.439 -84.117 754.222 -87 755 C-87.926 755.25 -88.852 755.501 -89.807 755.759 C-107.043 760.365 -124.465 763.769 -142 767 C-142.921 767.172 -143.841 767.343 -144.79 767.52 C-153.279 769.099 -161.766 770.439 -170.34 771.473 C-173.744 771.904 -173.744 771.904 -176.023 772.49 C-184.672 774.559 -193.412 774.392 -202.25 774.375 C-203.114 774.376 -203.978 774.377 -204.869 774.377 C-218.29 774.363 -231.535 773.585 -244.875 772.125 C-245.671 772.038 -246.467 771.951 -247.288 771.862 C-254.879 771.014 -262.401 770.043 -269.875 768.433 C-273.233 767.749 -276.595 767.384 -280 767 C-304.174 764.271 -328.918 757.577 -352 750 C-353.847 749.398 -353.847 749.398 -355.73 748.784 C-371.218 743.729 -386.66 738.571 -401.895 732.789 C-404.314 731.882 -406.742 731.003 -409.172 730.125 C-439.893 718.968 -467.761 706.121 -493 685 C-493.817 684.354 -494.635 683.708 -495.477 683.043 C-511.838 670.036 -527.568 655.027 -541 639 C-541.77 638.12 -542.539 637.239 -543.332 636.332 C-555.9 621.886 -567.214 606.568 -576.832 590.006 C-577.893 588.184 -578.975 586.378 -580.066 584.574 C-590.947 566.22 -598.858 546.762 -606.001 526.707 C-606.814 524.504 -607.679 522.365 -608.637 520.223 C-610.204 516.518 -611.282 512.819 -612.312 508.938 C-612.747 507.32 -613.182 505.703 -613.617 504.086 C-613.842 503.246 -614.068 502.407 -614.3 501.542 C-614.98 499.071 -615.705 496.618 -616.445 494.164 C-623.779 469.4 -627.243 443.514 -629.708 417.862 C-629.967 415.32 -630.278 412.794 -630.621 410.262 C-632.13 398.629 -632.184 387.025 -632.188 375.312 C-632.188 374.485 -632.189 373.658 -632.191 372.806 C-632.188 357.391 -631.574 342.1 -629.586 326.801 C-629.14 323.261 -628.765 319.719 -628.414 316.168 C-626.205 294.413 -622.317 272.89 -615.639 252.039 C-614.949 249.838 -614.307 247.627 -613.672 245.41 C-603.639 210.556 -589.62 176.728 -568.883 146.82 C-566.457 143.309 -564.354 140.094 -563 136 C-563.641 135.383 -564.281 134.765 -564.941 134.129 C-570.469 128.717 -575.441 123.242 -580 117 C-580.655 116.162 -581.31 115.324 -581.984 114.461 C-584.706 110.857 -586.753 107.864 -588 103.5 C-585.578 95.023 -577.493 89.333 -570.875 83.938 C-570.302 83.46 -569.729 82.983 -569.138 82.491 C-565.093 79.321 -562.135 78.32 -557 78 C-556.34 79.32 -555.68 80.64 -555 82 C-558.422 86.323 -561.768 89.687 -566.188 93 C-570.526 96.34 -572.473 98.765 -574 104 C-569.107 102.814 -566.984 99.857 -563.891 96.172 C-560.044 91.753 -556.29 87.721 -550.625 85.938 C-548 86 -548 86 -546 88 C-545.564 91.55 -545.7 93.468 -547.469 96.605 C-548.139 97.458 -548.809 98.31 -549.5 99.188 C-550.221 100.132 -550.941 101.077 -551.684 102.051 C-553.237 104.028 -554.792 106.005 -556.348 107.98 C-557.079 108.936 -557.809 109.891 -558.562 110.875 C-559.244 111.739 -559.926 112.602 -560.629 113.492 C-562.24 115.91 -562.24 115.91 -561.84 118.633 C-561.031 121.218 -561.031 121.218 -559 124 C-553.442 123.51 -549.972 120.297 -546.472 116.219 C-544.92 114.236 -543.421 112.222 -541.938 110.188 C-541.434 109.514 -540.931 108.84 -540.412 108.146 C-537.401 104.075 -534.652 99.923 -532.08 95.56 C-531 94 -531 94 -529 93 C-526 92.812 -526 92.812 -523 93 C-521 95 -521 95 -520.602 98.117 C-521.104 103.01 -522.805 106.011 -525.375 110.125 C-525.826 110.868 -526.277 111.611 -526.742 112.376 C-531.03 119.305 -535.892 125.664 -541 132 C-558.61 154.305 -573.694 177.43 -585 203.562 C-585.268 204.181 -585.536 204.8 -585.812 205.438 C-590.733 216.883 -595.27 228.5 -598.438 240.562 C-598.852 242.101 -599.267 243.638 -599.684 245.176 C-599.896 245.963 -600.109 246.75 -600.328 247.561 C-601.017 250.063 -601.74 252.553 -602.473 255.043 C-607.717 272.869 -611.897 290.633 -614.316 309.066 C-614.815 312.819 -615.446 316.519 -616.172 320.233 C-623.57 358.447 -621.362 399.26 -615.125 437.438 C-615.002 438.193 -614.879 438.949 -614.753 439.727 C-613.22 449.044 -611.333 458.189 -608.955 467.327 C-608.112 470.568 -607.315 473.815 -606.543 477.074 C-604.18 486.917 -601.637 496.642 -598.438 506.25 C-598.169 507.058 -597.9 507.866 -597.624 508.698 C-595.732 514.221 -593.546 519.593 -591.274 524.969 C-590.068 527.839 -588.9 530.722 -587.746 533.613 C-572.931 570.392 -551.754 601.392 -525.168 630.613 C-523.722 632.205 -522.287 633.807 -520.863 635.418 C-513.08 644.208 -504.914 652.71 -495.957 660.316 C-494.576 661.505 -493.221 662.724 -491.887 663.965 C-455.02 698.229 -409.228 720.39 -360.656 732.323 C-356.446 733.396 -352.29 734.643 -348.125 735.875 C-327.472 741.873 -306.6 747.13 -285.229 749.701 C-282.415 750.078 -279.642 750.599 -276.856 751.145 C-255.811 755.196 -234.54 755.257 -213.188 755.062 C-209.456 755.035 -205.726 755.01 -201.994 754.991 C-199.7 754.979 -197.405 754.962 -195.11 754.938 C-194.086 754.931 -193.063 754.925 -192.009 754.918 C-191.111 754.91 -190.213 754.902 -189.287 754.893 C-187 755 -187 755 -184 756 C-183.67 755.01 -183.34 754.02 -183 753 C-173.976 750.898 -164.82 749.988 -155.625 749 C-137.096 747.052 -137.096 747.052 -118.875 743.25 C-114.079 741.991 -109.282 740.832 -104.426 739.828 C-68.276 732.23 -33.989 718.367 -2 700 C-1.324 699.617 -0.647 699.233 0.05 698.838 C17.106 689.141 33.352 677.852 48.423 665.301 C49.886 664.094 51.375 662.921 52.867 661.75 C64.596 652.503 74.839 641.773 84 630 C84.844 628.946 85.689 627.892 86.535 626.84 C109.292 598.418 127.619 567.46 144 535 C144.538 533.935 145.076 532.87 145.63 531.772 C155.258 512.575 163.429 493.027 170.135 472.622 C170.9 470.302 171.693 467.994 172.5 465.688 C174.442 459.852 175.955 453.897 177.488 447.944 C177.959 446.157 178.462 444.379 178.969 442.602 C181.581 433.06 183.168 423.389 184.688 413.625 C184.85 412.581 184.85 412.581 185.017 411.517 C186.85 399.688 188.112 388.008 188.547 376.043 C188.589 374.917 188.63 373.79 188.673 372.63 C189.065 361.307 189.22 349.987 189.24 338.658 C189.25 335.302 189.281 331.947 189.312 328.592 C189.467 296.819 182.961 267.06 173 237 C172.628 235.871 172.628 235.871 172.248 234.718 C167.645 221.023 161.175 208.035 155 195 C154.42 193.772 153.841 192.543 153.261 191.315 C137.62 158.204 119.698 127.668 97.284 98.666 C96.21 97.273 95.154 95.866 94.102 94.457 C86.518 85.038 71.856 73.128 60 70 C57.305 70.333 57.305 70.333 55 71 C55.532 77.026 59.041 80.332 63.426 84.066 C66.277 86.386 69.138 88.694 72 91 C73.913 92.542 75.81 94.103 77.688 95.688 C78.516 96.372 79.345 97.056 80.199 97.762 C82 100 82 100 82.395 103.145 C82 106 82 106 80 108 C74.436 107.845 70.868 105.306 66.5 102.188 C65.808 101.7 65.116 101.213 64.403 100.712 C43.074 85.453 43.074 85.453 39 76 C38.539 70.584 41.818 67.187 45.074 63.176 C46.802 61.224 48.589 59.456 50.5 57.688 C53.229 55.38 53.229 55.38 52.957 53.105 C49.286 45.03 36.636 38.473 29.625 33.5 C28.769 32.889 27.914 32.277 27.032 31.647 C22.805 28.696 19.079 26.257 14 25 C15.389 29.947 16.857 34.808 18.812 39.562 C20.709 44.22 22.514 48.905 24.25 53.625 C24.52 54.33 24.791 55.034 25.07 55.76 C26.864 60.707 27.26 64.74 27 70 C25.35 70.33 23.7 70.66 22 71 C13.27 62.27 9.875 50.178 6.092 38.686 C4.844 34.983 3.593 31.953 1 29 C-3.603 30.534 -5.588 34.234 -8.188 38.062 C-9.076 39.345 -9.966 40.628 -10.855 41.91 C-11.563 42.93 -12.271 43.949 -13 45 C-14 46 -14 46 -16.375 46.312 C-19 46 -19 46 -20.812 44.375 C-22.343 41.314 -22.282 39.407 -22 36 C-20.715 33.141 -20.715 33.141 -18.938 30.25 C-18.298 29.203 -17.659 28.157 -17 27.078 C-15.213 24.327 -13.358 21.658 -11.438 19 C-8.127 14.408 -5.668 9.584 -3.262 4.469 C-2 2 -2 2 0 0 Z " fill="#030303" transform="translate(727,152)"/>
<path d="M0 0 C0.724 0.323 1.449 0.646 2.195 0.979 C7.443 3.474 11.13 6.585 14.375 11.438 C16.057 16.482 15.64 21.759 15.67 27.042 C15.682 28.422 15.702 29.802 15.732 31.181 C16.013 44.289 16.013 44.289 12.285 50.417 C10.261 54.91 10.841 60.105 10.938 64.938 C10.955 66.66 10.955 66.66 10.973 68.417 C11.175 78.469 12.203 88.062 15.461 97.625 C16.573 101.046 16.65 103.863 16.375 107.438 C14.375 109.438 14.375 109.438 11.973 109.766 C7.894 109.25 6.527 107.064 4.02 103.988 C-1.871 94.852 -2.805 84.092 -2.688 73.5 C-2.683 72.721 -2.678 71.942 -2.674 71.139 C-2.662 69.238 -2.644 67.338 -2.625 65.438 C-4.481 65.933 -4.481 65.933 -6.375 66.438 C-14.426 68.187 -22.637 68.963 -29.949 64.633 C-37.406 59.314 -41.738 51.281 -43.625 42.438 C-45.047 30.81 -42.277 18.88 -35.312 9.375 C-25.41 -2.031 -13.95 -6.812 0 0 Z " fill="#030303" transform="translate(535.625,706.5625)"/>
<path d="M0 0 C7.707 4.166 7.707 4.166 9.5 9.188 C9.697 12.862 9.686 16.464 9.543 20.141 C9.268 23.106 9.268 23.106 10.5 25.188 C11.105 30.486 9.437 33.662 6.562 37.938 C5.824 39.078 5.086 40.219 4.348 41.359 C3.433 42.759 3.433 42.759 2.5 44.188 C-2.573 54.334 -0.198 74.394 2.5 85.188 C2.83 85.517 3.16 85.847 3.5 86.188 C3.668 88.184 3.668 88.184 3.688 90.625 C3.702 91.428 3.716 92.231 3.73 93.059 C3.5 95.188 3.5 95.188 1.5 97.188 C-2.245 97.77 -3.95 97.554 -7.125 95.438 C-14.112 87.396 -14.135 75.467 -14.25 65.438 C-14.28 64.156 -14.309 62.875 -14.34 61.555 C-14.41 58.432 -14.463 55.31 -14.5 52.188 C-16.92 50.977 -18.49 51.062 -21.191 51.047 C-22.61 51.018 -22.61 51.018 -24.057 50.988 C-26.033 50.955 -28.01 50.936 -29.986 50.934 C-37.536 50.74 -43.426 48.972 -49.052 43.745 C-50.375 42.25 -50.375 42.25 -52.5 39.188 C-53.098 38.342 -53.696 37.496 -54.312 36.625 C-57.043 28.72 -56.393 20.091 -52.883 12.531 C-40.713 -8.096 -20.213 -9.346 0 0 Z " fill="#030303" transform="translate(547.5,98.8125)"/>
<path d="M0 0 C2.206 3.839 2.408 5.545 1.688 9.938 C-0.632 16.283 -3.81 20.997 -8.859 25.465 C-10.574 26.986 -10.574 26.986 -11.312 29.938 C-5.753 33.548 -0.809 34.947 5.688 36.062 C21.068 38.84 21.068 38.84 24.625 41.25 C26.069 43.543 25.903 45.284 25.688 47.938 C20.013 51.721 14.349 51.69 7.688 50.938 C4.595 50.096 1.641 49.068 -1.363 47.953 C-5.117 46.661 -8.845 46.01 -12.754 45.375 C-16.334 44.763 -19.802 43.865 -23.312 42.938 C-23.73 48.782 -23.044 51.961 -20.207 57.043 C-18.934 59.74 -18.956 62.014 -19.312 64.938 C-20.312 65.938 -20.312 65.938 -22.938 66.375 C-27.721 65.755 -30.033 63.358 -33.312 59.938 C-35.388 57.141 -37.139 54.204 -38.875 51.188 C-39.348 50.389 -39.821 49.591 -40.309 48.768 C-41.239 47.197 -42.164 45.623 -43.083 44.046 C-44.595 41.454 -46.139 38.882 -47.688 36.312 C-48.13 35.564 -48.572 34.815 -49.027 34.043 C-49.918 32.584 -50.851 31.15 -51.816 29.738 C-52.289 29.041 -52.763 28.344 -53.25 27.625 C-53.672 27.031 -54.093 26.436 -54.527 25.824 C-55.652 23.121 -55.282 21.675 -54.312 18.938 C-43.362 6.965 -15.747 -9.805 0 0 Z " fill="#030303" transform="translate(307.3125,143.0625)"/>
<path d="M0 0 C5.112 1.972 9.592 4.441 12.477 9.223 C13.803 12.524 13.994 15.826 13.301 19.273 C10.642 24.954 7.609 28.104 2.551 31.711 C1.949 32.156 1.347 32.602 0.727 33.061 C-0.74 34.143 -2.219 35.21 -3.699 36.273 C-3.201 40.577 -0.452 43.223 2.301 46.336 C3.297 47.495 4.293 48.653 5.289 49.812 C6.752 51.5 8.22 53.182 9.701 54.854 C10.975 56.296 12.232 57.753 13.488 59.211 C14.224 60.045 14.96 60.879 15.719 61.738 C17.658 64.845 17.766 66.673 17.301 70.273 C15.301 72.273 15.301 72.273 13.113 72.773 C5.084 71.346 -0.934 61.594 -5.859 55.68 C-10.437 50.34 -14.142 46.896 -20.699 44.273 C-20.688 45.324 -20.676 46.375 -20.664 47.457 C-20.502 67.752 -20.502 67.752 -23.055 70.996 C-24.699 72.273 -24.699 72.273 -27.699 72.398 C-30.699 71.273 -30.699 71.273 -32.355 68.583 C-34.632 62.734 -34.187 56.384 -34.203 50.203 C-34.213 48.835 -34.223 47.467 -34.233 46.099 C-34.251 43.243 -34.257 40.387 -34.255 37.531 C-34.255 33.877 -34.296 30.226 -34.347 26.573 C-34.381 23.752 -34.387 20.932 -34.385 18.111 C-34.391 16.111 -34.423 14.112 -34.456 12.113 C-34.389 3.339 -34.389 3.339 -32.442 0.332 C-24.369 -6.805 -9.391 -2.797 0 0 Z " fill="#030303" transform="translate(361.69921875,698.7265625)"/>
<path d="M0 0 C9.46 6.412 14.02 18.676 18.21 28.907 C20.077 33.403 20.077 33.403 23.199 37.082 C25.868 39.925 25.504 42.298 25.562 46.125 C25.708 50.719 26.044 54.877 27.562 59.25 C29.33 64.414 29.724 69.581 29 75 C28.34 75.66 27.68 76.32 27 77 C23.288 76.919 21.538 76.507 18.812 73.938 C14.47 66.899 12.873 58.969 11 51 C8.312 50.946 5.626 50.906 2.938 50.875 C1.809 50.85 1.809 50.85 0.658 50.824 C-4.282 50.781 -8.351 51.271 -13 53 C-14.091 55.183 -14.329 56.833 -14.648 59.246 C-14.767 60.083 -14.886 60.921 -15.008 61.783 C-15.252 63.548 -15.489 65.314 -15.719 67.08 C-15.84 67.919 -15.961 68.757 -16.086 69.621 C-16.19 70.389 -16.293 71.156 -16.4 71.947 C-17.118 74.404 -17.977 75.453 -20 77 C-22.5 76.938 -22.5 76.938 -25 76 C-28.687 72.065 -28.492 68.822 -28.348 63.637 C-27.643 56.266 -25.798 49.168 -24 42 C-23.77 41.055 -23.539 40.11 -23.302 39.136 C-15.933 8.933 -15.933 8.933 -8 1 C-5.147 -0.427 -3.165 -0.31 0 0 Z " fill="#030303" transform="translate(655,703)"/>
<path d="M0 0 C2.992 0.236 4.528 0.494 6.605 2.723 C8.21 5.342 8.56 7.211 8.938 10.25 C9.747 15.747 10.942 21.047 12.323 26.427 C13.818 32.25 15.235 38.089 16.625 43.938 C16.831 44.801 17.037 45.665 17.249 46.554 C17.839 49.035 18.421 51.517 19 54 C19.193 54.821 19.387 55.643 19.586 56.489 C19.768 57.278 19.95 58.066 20.137 58.879 C20.38 59.926 20.38 59.926 20.628 60.994 C21.198 64.068 21.195 66.882 21 70 C20 71 20 71 17.375 71.438 C12.684 70.829 10.098 68.482 7 65 C5.427 62.211 4.585 59.657 3.965 56.523 C3.795 55.688 3.626 54.853 3.451 53.992 C3.282 53.129 3.112 52.265 2.938 51.375 C2.595 49.653 2.25 47.932 1.902 46.211 C1.678 45.071 1.678 45.071 1.449 43.908 C1.061 41.929 1.061 41.929 0 40 C-11.153 41.088 -21.347 43.584 -32 47 C-32.037 48.29 -32.075 49.581 -32.113 50.91 C-32.179 52.628 -32.245 54.345 -32.312 56.062 C-32.335 56.91 -32.358 57.758 -32.381 58.631 C-32.613 64.101 -33.4 68.153 -36 73 C-38 74.125 -38 74.125 -40 74 C-45.033 69.875 -45.713 63.282 -46.485 57.144 C-46.918 52.748 -47.244 48.344 -47.562 43.938 C-47.785 40.946 -48.015 37.955 -48.254 34.965 C-48.339 33.9 -48.339 33.9 -48.425 32.814 C-48.863 27.716 -49.792 22.961 -51 18 C-51.23 14.969 -51.23 14.969 -51.188 12.5 C-51.181 11.665 -51.175 10.829 -51.168 9.969 C-51 8 -51 8 -50 7 C-47.75 6.625 -47.75 6.625 -45 7 C-40.552 10.61 -38.926 14.111 -37.688 19.562 C-37.519 20.222 -37.351 20.881 -37.178 21.561 C-36.371 24.836 -36 27.604 -36 31 C-35.45 30.818 -34.899 30.636 -34.332 30.449 C-24.437 27.458 -14.222 26.328 -4 25 C-4.052 23.155 -4.052 23.155 -4.105 21.273 C-4.134 19.641 -4.161 18.008 -4.188 16.375 C-4.213 15.567 -4.238 14.759 -4.264 13.926 C-4.326 8.829 -3.783 5.445 -1 1 C-0.67 0.67 -0.34 0.34 0 0 Z " fill="#030303" transform="translate(458,88)"/>
<path d="M0 0 C4.426 0.45 5.72 1.087 8.688 4.375 C13.892 13.574 14.914 22.623 15.051 32.984 C15.382 36.555 15.382 36.555 18.23 38.828 C19.447 39.594 19.447 39.594 20.688 40.375 C19.812 45.25 19.812 45.25 18.688 46.375 C18.565 48.558 18.508 50.744 18.477 52.93 C18.448 54.28 18.42 55.63 18.391 56.98 C18.349 59.116 18.312 61.251 18.286 63.386 C18.259 65.443 18.213 67.498 18.164 69.555 C18.144 70.789 18.124 72.024 18.104 73.296 C17.688 76.375 17.688 76.375 16.283 78.309 C14.688 79.375 14.688 79.375 12.688 79.25 C9.334 77.783 8.062 76.243 6.609 72.879 C5.416 68.345 5.471 64.163 5.562 59.5 C5.572 58.621 5.581 57.742 5.59 56.836 C5.613 54.682 5.649 52.529 5.688 50.375 C2.416 50.514 -0.854 50.662 -4.125 50.812 C-5.054 50.852 -5.983 50.891 -6.939 50.932 C-7.832 50.974 -8.725 51.015 -9.645 51.059 C-10.467 51.095 -11.289 51.132 -12.136 51.17 C-14.492 51.309 -14.492 51.309 -17.312 52.375 C-18.361 54.927 -18.361 54.927 -19.312 58.375 C-19.944 60.234 -20.591 62.088 -21.25 63.938 C-21.568 64.846 -21.887 65.755 -22.215 66.691 C-23.343 69.448 -24.718 71.863 -26.312 74.375 C-31.062 73.625 -31.062 73.625 -33.312 71.375 C-33.613 68.617 -33.613 68.617 -33.625 65.25 C-33.642 64.154 -33.659 63.059 -33.676 61.93 C-33.24 57.661 -31.942 54.309 -30.312 50.375 C-29.746 48.88 -29.182 47.384 -28.621 45.887 C-11.473 1.299 -11.473 1.299 0 0 Z " fill="#030303" transform="translate(294.3125,693.625)"/>
<path d="M0 0 C0.754 -0.004 1.507 -0.009 2.284 -0.013 C3.88 -0.019 5.476 -0.019 7.073 -0.015 C9.493 -0.012 11.913 -0.035 14.334 -0.061 C15.889 -0.063 17.445 -0.064 19 -0.062 C20.072 -0.076 20.072 -0.076 21.166 -0.09 C26.475 -0.043 30.496 1.067 35.332 3.301 C37.481 6.525 37.715 7.568 37.332 11.301 C34.434 14.199 31.435 13.617 27.551 13.645 C26.781 13.659 26.012 13.674 25.22 13.689 C21.922 13.751 18.624 13.791 15.327 13.833 C12.922 13.866 10.518 13.911 8.113 13.957 C7.364 13.962 6.615 13.968 5.844 13.973 C1.629 13.915 1.629 13.915 -1.668 16.301 C-2.13 18.733 -2.13 18.733 -2.293 21.426 C-2.368 22.336 -2.442 23.246 -2.52 24.184 C-2.569 24.882 -2.618 25.581 -2.668 26.301 C-1.369 26.425 -0.069 26.548 1.27 26.676 C2.167 26.769 3.064 26.861 3.988 26.957 C5.8 27.143 7.612 27.327 9.426 27.496 C11.708 27.71 13.989 27.942 16.27 28.176 C17.015 28.242 17.761 28.308 18.529 28.376 C21.524 28.697 23.828 28.946 26.324 30.703 C27.735 32.939 27.542 34.716 27.332 37.301 C20.059 41.409 13.635 41.858 5.395 41.863 C3.156 41.872 0.918 41.894 -1.32 41.93 C-2.3 41.93 -3.28 41.931 -4.289 41.932 C-5.074 42.054 -5.859 42.175 -6.668 42.301 C-8.958 45.736 -8.965 47.188 -8.98 51.238 C-8.997 52.279 -9.014 53.319 -9.031 54.391 C-8.61 57.767 -8.09 58.937 -5.668 61.301 C-2.636 61.822 -2.636 61.822 0.828 61.621 C2.749 61.588 2.749 61.588 4.709 61.555 C6.063 61.513 7.416 61.47 8.77 61.426 C11.414 61.353 14.058 61.297 16.703 61.246 C18.465 61.192 18.465 61.192 20.263 61.137 C23.245 61.296 24.836 61.732 27.332 63.301 C27.582 66.113 27.582 66.113 27.332 69.301 C20.376 75.701 10.446 75.78 1.52 75.676 C0.51 75.687 -0.5 75.699 -1.541 75.711 C-10.645 75.675 -10.645 75.675 -14.668 72.301 C-20.855 65.584 -21.103 59.332 -20.93 50.512 C-20.664 44.58 -19.219 39.01 -17.668 33.301 C-16.515 28.636 -15.667 24.107 -15.465 19.301 C-15.419 18.235 -15.419 18.235 -15.372 17.148 C-15.32 15.739 -15.287 14.33 -15.273 12.921 C-15.113 8.111 -14.062 5.689 -10.668 2.301 C-7.007 -0.14 -4.235 -0.005 0 0 Z " fill="#030303" transform="translate(224.66796875,689.69921875)"/>
<path d="M0 0 C3.535 0.295 4.762 0.749 7.25 3.375 C9.473 6.71 10.122 9.311 10.316 13.23 C10.379 14.434 10.379 14.434 10.443 15.662 C10.483 16.495 10.522 17.329 10.562 18.188 C10.606 19.032 10.649 19.877 10.693 20.748 C10.799 22.832 10.9 24.916 11 27 C16.445 23.108 21.827 19.187 27 14.938 C30.509 12.117 34.079 9.456 37.812 6.938 C38.685 6.348 39.558 5.759 40.457 5.152 C43.472 3.786 44.893 4.024 48 5 C48.75 7.125 48.75 7.125 49 10 C46.255 14.843 42.818 18.317 38.688 22 C38.113 22.521 37.538 23.042 36.947 23.579 C33.024 27.124 29.054 30.606 25 34 C25.552 37.646 26.7 38.945 29.625 41.125 C30.429 41.726 31.234 42.326 32.062 42.945 C34.89 44.923 37.755 46.821 40.644 48.707 C55.058 58.116 55.058 58.116 58 64 C58.187 66.69 58.086 69.297 58 72 C57 73 57 73 54.254 73.242 C41.697 72.308 26.923 56.064 17.461 47.934 C15.08 45.839 15.08 45.839 12 45 C12.01 45.868 12.021 46.736 12.032 47.63 C12.066 50.847 12.091 54.064 12.11 57.28 C12.12 58.673 12.134 60.066 12.151 61.459 C12.175 63.46 12.185 65.46 12.195 67.461 C12.206 68.665 12.216 69.87 12.227 71.111 C12 74 12 74 10 76 C6.875 76.125 6.875 76.125 4 76 C0.977 70.832 0.13 66.083 -0.625 60.25 C-0.751 59.333 -0.876 58.416 -1.005 57.47 C-1.99 49.92 -2.498 42.39 -2.789 34.785 C-2.918 31.137 -2.918 31.137 -3.504 28.125 C-4.202 23.726 -4.264 19.385 -4.312 14.938 C-4.342 14.053 -4.371 13.168 -4.4 12.256 C-4.443 7.876 -4.416 5.643 -1.98 1.879 C-1.327 1.259 -0.673 0.639 0 0 Z " fill="#030303" transform="translate(697,698)"/>
<path d="M0 0 C2.312 0.188 2.312 0.188 5 1 C7.992 4.877 8.359 7.788 8.293 12.613 C8.283 13.86 8.274 15.108 8.264 16.393 C8.239 17.686 8.213 18.98 8.188 20.312 C8.167 22.282 8.167 22.282 8.146 24.291 C8.111 27.528 8.062 30.764 8 34 C9.794 33.753 9.794 33.753 11.625 33.5 C18.07 32.768 24.523 32.917 31 33 C30.984 32.142 30.969 31.285 30.952 30.401 C30.901 27.211 30.864 24.02 30.835 20.83 C30.82 19.45 30.8 18.071 30.774 16.692 C30.737 14.706 30.722 12.72 30.707 10.734 C30.691 9.54 30.676 8.346 30.659 7.116 C31.026 3.765 31.725 2.424 34 0 C36.935 0.314 37.98 0.98 40.112 3.089 C42.504 6.776 42.488 9.011 42.461 13.387 C42.461 14.109 42.461 14.832 42.461 15.577 C42.454 17.948 42.416 20.317 42.375 22.688 C42.359 24.335 42.344 25.983 42.329 27.631 C42.195 39.096 41.788 50.55 41.188 62 C41.153 62.727 41.118 63.453 41.082 64.202 C40.98 66.261 40.859 68.318 40.73 70.375 C40.628 72.119 40.628 72.119 40.524 73.898 C39.962 77.225 38.916 79.252 37 82 C33.956 81.783 32.994 80.993 30.875 78.75 C27.701 73.782 28.584 67.788 28.75 62.125 C28.768 60.96 28.786 59.794 28.805 58.594 C28.852 55.729 28.923 52.864 29 50 C21.41 50.33 13.82 50.66 6 51 C5.711 57.776 5.711 57.776 5.432 64.552 C5.394 65.397 5.356 66.242 5.316 67.113 C5.261 68.409 5.261 68.409 5.205 69.732 C5 72 5 72 4 75 C1.03 75.495 1.03 75.495 -2 76 C-8.352 68.59 -8.632 62.496 -8 53 C-7.502 49.16 -6.852 45.345 -6.208 41.527 C-4.73 32.286 -4.253 22.99 -3.823 13.648 C-3.757 12.455 -3.692 11.261 -3.625 10.031 C-3.576 8.965 -3.527 7.898 -3.477 6.799 C-2.954 3.731 -2.06 2.288 0 0 Z " fill="#030303" transform="translate(442,697)"/>
<path d="M0 0 C4.568 1.639 7.459 5.468 10.66 8.973 C13.857 12.432 17.522 14.966 21.453 17.539 C23.449 18.879 23.449 18.879 25.449 20.879 C25.762 24.379 25.762 24.379 25.449 27.879 C22.449 29.879 22.449 29.879 18.949 29.629 C15.449 28.879 15.449 28.879 12.449 26.879 C12.938 27.851 12.938 27.851 13.437 28.843 C14.738 32.744 14.698 36.4 14.645 40.461 C14.64 41.682 14.64 41.682 14.636 42.928 C14.625 45.516 14.6 48.104 14.574 50.691 C14.564 52.451 14.555 54.211 14.547 55.971 C14.525 60.274 14.49 64.576 14.449 68.879 C11.974 69.374 11.974 69.374 9.449 69.879 C1.67 61.295 1.834 51.805 1.449 40.879 C-7.08 37.085 -18.49 36.881 -27.551 38.879 C-31.353 41.149 -33.011 44.202 -35.035 48.059 C-36.624 51.014 -37.442 51.811 -40.551 52.879 C-41.541 52.219 -42.531 51.559 -43.551 50.879 C-44.811 43.065 -42.258 37.965 -37.81 31.583 C-30.78 22.069 -22.686 13.391 -13.551 5.879 C-12.632 5.061 -12.632 5.061 -11.695 4.227 C-8.045 1.211 -4.689 -0.247 0 0 Z " fill="#030303" transform="translate(679.55078125,121.12109375)"/>
<path d="M0 0 C2.688 0.438 2.688 0.438 4.938 3.25 C7.52 7.955 7.847 11.645 7.855 16.887 C7.86 17.984 7.86 17.984 7.866 19.103 C7.871 20.652 7.873 22.202 7.873 23.751 C7.875 26.099 7.893 28.447 7.912 30.795 C7.915 32.305 7.917 33.814 7.918 35.324 C7.925 36.017 7.932 36.71 7.94 37.424 C7.886 49.048 3.069 60.73 -4.883 69.238 C-6.985 71.002 -8.593 71.305 -11.312 71.438 C-12.344 71.623 -13.375 71.809 -14.438 72 C-29.532 73.704 -29.532 73.704 -36.238 68.684 C-40.527 64.04 -42.878 58.203 -45.312 52.438 C-45.682 51.58 -46.052 50.723 -46.434 49.84 C-49.622 41.126 -49.537 31.6 -49.625 22.438 C-49.643 21.434 -49.66 20.431 -49.678 19.397 C-49.67 10.157 -49.67 10.157 -46.312 6.438 C-43.312 5.875 -43.312 5.875 -40.312 6.438 C-37.359 9.454 -36.937 11.693 -36.906 15.84 C-36.877 17.414 -36.877 17.414 -36.846 19.02 C-36.835 20.127 -36.824 21.234 -36.812 22.375 C-36.501 37.771 -36.501 37.771 -31.625 52.25 C-29.351 54.804 -29.351 54.804 -25.375 55.125 C-20.958 54.814 -19.195 52.72 -16.312 49.438 C-14.981 49.095 -13.648 48.76 -12.312 48.438 C-6.496 39.31 -6.909 25.075 -6.779 14.621 C-6.652 9.221 -6.449 1.22 0 0 Z " fill="#030303" transform="translate(610.3125,702.5625)"/>
<path d="M0 0 C1.961 1.168 1.961 1.168 3.961 4.168 C3.711 6.793 3.711 6.793 2.961 9.168 C0.502 10.397 -1.056 10.248 -3.801 10.203 C-5.233 10.212 -5.233 10.212 -6.693 10.221 C-8.696 10.227 -10.699 10.207 -12.701 10.158 C-16.866 10.222 -19.865 10.291 -23.272 12.835 C-26.615 16.47 -28.328 19.229 -29.039 24.168 C-23.902 24.378 -19.864 23.727 -14.977 22.168 C-10.534 20.754 -6.722 19.624 -2.039 20.168 C-0.039 23.168 -0.039 23.168 0.004 25.605 C-1.516 29.34 -4.273 30.474 -7.727 32.168 C-8.391 32.508 -9.054 32.849 -9.739 33.199 C-16.294 36.471 -23.068 38.934 -30.039 41.168 C-30.19 46.455 -29.735 49.562 -27.039 54.168 C-15.862 54.598 -6.533 52.409 3.441 47.469 C7.353 45.591 9.779 44.71 13.961 46.168 C14.691 48.418 14.691 48.418 14.961 51.168 C9.976 58.262 1.818 61.357 -6.039 64.168 C-6.743 64.488 -7.447 64.807 -8.172 65.137 C-15.611 68.287 -25.147 68.727 -33.039 67.168 C-38.119 64.366 -40.043 59.755 -41.977 54.48 C-43.491 48.374 -43.3 42.413 -43.039 36.168 C-43.031 34.86 -43.024 33.551 -43.016 32.203 C-42.83 21.282 -40.216 12.425 -32.727 4.168 C-23.082 -4.444 -11.64 -4.916 0 0 Z " fill="#030303" transform="translate(802.0390625,704.83203125)"/>
<path d="M0 0 C1.589 0.027 1.589 0.027 3.211 0.055 C4.008 0.078 4.804 0.101 5.625 0.125 C6.12 3.095 6.12 3.095 6.625 6.125 C2.698 9.537 -1.288 11.724 -5.938 13.938 C-11.123 16.48 -16.267 19.062 -21.312 21.875 C-22.27 22.406 -23.228 22.937 -24.215 23.484 C-26.701 25.372 -26.808 26.176 -27.375 29.125 C-26.117 28.836 -24.859 28.548 -23.562 28.25 C3.622 22.257 3.622 22.257 11.023 26.5 C12.625 28.125 12.625 28.125 13.25 30.562 C12.625 33.125 12.625 33.125 10.438 35.312 C5.453 38.294 -0.719 38.487 -6.375 39.125 C-5.924 43.79 -5.924 43.79 -4.312 48.125 C-2.916 51.103 -3.251 53.889 -3.375 57.125 C-6.706 56.832 -8.049 56.477 -10.359 53.98 C-10.942 53.1 -11.525 52.22 -12.125 51.312 C-12.718 50.44 -13.311 49.567 -13.922 48.668 C-15.212 46.41 -15.925 44.663 -16.375 42.125 C-20.946 42.674 -25.049 43.542 -29.375 45.125 C-29.045 46.383 -28.715 47.641 -28.375 48.938 C-27.15 54.353 -27.189 59.6 -27.375 65.125 C-29.85 65.62 -29.85 65.62 -32.375 66.125 C-38.4 59.928 -41.104 52.312 -43.625 44.152 C-43.834 43.483 -44.044 42.814 -44.26 42.125 C-44.848 40.214 -45.409 38.294 -45.969 36.375 C-47.551 32.718 -49.159 31.38 -52.375 29.125 C-53.756 26.362 -53.566 24.178 -53.375 21.125 C-50.926 18.676 -49.118 18.296 -45.812 17.25 C-37.238 14.297 -29.209 10.321 -21.084 6.315 C-20.045 5.805 -19.007 5.295 -17.938 4.77 C-17.011 4.309 -16.084 3.849 -15.129 3.374 C-9.947 1.023 -5.7 -0.127 0 0 Z " fill="#030303" transform="translate(380.375,109.875)"/>
<path d="M0 0 C3.505 1.286 6.937 2.713 10.367 4.184 C11.118 4.5 11.868 4.817 12.641 5.143 C21.966 9.098 31.047 13.331 39.805 18.434 C40.496 18.833 41.187 19.233 41.899 19.645 C45.919 22.059 49.294 24.577 52.367 28.184 C52.305 30.934 52.305 30.934 51.367 33.184 C47.773 34.981 44.104 34.185 40.367 33.184 C37.179 31.464 34.174 29.597 31.164 27.582 C28.482 25.944 28.482 25.944 25.656 26.375 C20.25 28.285 16.74 32.767 13.16 37.051 C11.982 38.452 10.755 39.815 9.48 41.129 C7.691 43.116 6.399 44.712 5.367 47.184 C5.699 49.921 6.48 52.153 7.48 54.719 C8.808 58.408 8.709 61.292 8.367 65.184 C7.707 66.174 7.047 67.164 6.367 68.184 C2.68 67.585 2.424 67.26 -0.008 63.996 C-9.443 47.579 -18.462 23.389 -15.633 4.184 C-12.107 -1.886 -6.098 -1.891 0 0 Z " fill="#030303" transform="translate(217.6328125,187.81640625)"/>
<path d="M0 0 C5.35 -0.357 5.35 -0.357 7.938 1.062 C9.629 4.147 8.853 6.749 8 10 C7.314 12.021 6.627 14.042 5.938 16.062 C3.442 23.949 2.129 32.534 5.402 40.348 C6.731 43.088 6.731 43.088 9 44 C14.82 44.475 19.785 43.568 25 41 C32.984 33.924 35.448 22.103 37.91 12.129 C39.087 8.75 40.622 6.645 43 4 C47.75 4.75 47.75 4.75 50 7 C52.634 23.548 44.729 42.185 36 56 C33.022 58.91 30.667 59.454 26.562 59.75 C25.636 59.827 24.709 59.905 23.754 59.984 C21.011 60 18.671 59.58 16 59 C15.113 59.062 14.226 59.124 13.312 59.188 C7.055 58.833 1.743 56.591 -2.875 52.375 C-8.862 42.866 -10.742 33.923 -8.556 22.727 C-6.679 14.521 -4.435 7.192 0 0 Z " fill="#030303" transform="translate(583,101)"/>
<path d="M0 0 C1.812 0.062 1.812 0.062 4 1 C5.813 4.496 7 7.04 7 11 C11.593 12.559 16.47 11.982 21.244 11.785 C26.519 11.677 26.519 11.677 29.008 13.348 C30 15 30 15 29.812 17.562 C29 20 29 20 27 22 C24.937 22.502 24.937 22.502 22.43 22.852 C21.534 22.98 20.638 23.109 19.715 23.242 C18.778 23.369 17.841 23.495 16.875 23.625 C15.93 23.759 14.985 23.893 14.012 24.031 C11.675 24.362 9.338 24.683 7 25 C6.168 32.067 5.843 39.04 5.789 46.152 C5.761 48.248 5.732 50.344 5.703 52.439 C5.662 55.707 5.625 58.975 5.599 62.242 C5.571 65.421 5.525 68.599 5.477 71.777 C5.473 72.759 5.47 73.74 5.467 74.751 C5.45 75.659 5.434 76.568 5.417 77.504 C5.408 78.302 5.4 79.1 5.392 79.922 C4.902 82.522 4.098 83.427 2 85 C-0.688 85.188 -0.688 85.188 -3 85 C-9.544 73.958 -7.344 60.762 -6.223 48.457 C-5.763 41.317 -5.928 34.152 -6 27 C-6.574 26.991 -7.149 26.981 -7.741 26.972 C-10.37 26.918 -12.997 26.834 -15.625 26.75 C-16.98 26.729 -16.98 26.729 -18.363 26.707 C-24.649 26.478 -28.447 25.553 -33 21 C-33.125 17.5 -33.125 17.5 -33 14 C-31.196 12.196 -28.433 12.763 -25.996 12.684 C-24.174 12.621 -24.174 12.621 -22.314 12.557 C-21.035 12.517 -19.756 12.478 -18.438 12.438 C-17.154 12.394 -15.871 12.351 -14.549 12.307 C-11.366 12.2 -8.183 12.098 -5 12 C-4.704 10.906 -4.407 9.811 -4.102 8.684 C-3.098 5.329 -1.928 2.892 0 0 Z " fill="#030303" transform="translate(408,689)"/>
<path d="M0 0 C3.562 1.562 3.562 1.562 6 4 C8.753 12.444 6.942 23.761 4 32 C3.34 32 2.68 32 2 32 C2 31.34 2 30.68 2 30 C-0.558 32.487 -2.941 34.923 -5.125 37.75 C-7.677 40.812 -9.458 40.95 -13.375 41.312 C-17.638 40.945 -19.053 40.031 -22 37 C-25.637 31.544 -24.768 23.297 -24 17 C-21.989 9.963 -17.997 5.094 -12 1 C-8.282 -0.859 -4.058 -0.435 0 0 Z " fill="#FEFEFE" transform="translate(530,718)"/>
<path d="M0 0 C1.277 -0.028 2.555 -0.057 3.871 -0.086 C8.23 0.458 10.343 1.391 13.562 4.375 C14.796 9.769 14.561 16.155 12.062 21.188 C11.567 21.909 11.072 22.631 10.562 23.375 C9.572 23.375 8.582 23.375 7.562 23.375 C7.562 22.715 7.562 22.055 7.562 21.375 C5.582 21.375 3.602 21.375 1.562 21.375 C1.47 22.798 1.47 22.798 1.375 24.25 C1.107 25.281 0.839 26.312 0.562 27.375 C-3.555 29.717 -7.87 29.807 -12.5 29.875 C-13.207 29.916 -13.914 29.958 -14.643 30 C-16.723 30.031 -16.723 30.031 -20.438 29.375 C-23.177 26.226 -24.29 24.157 -25.062 20.062 C-23.981 13.682 -20.192 8.679 -15.375 4.438 C-10.245 0.836 -6.266 0.063 0 0 Z " fill="#FEFEFE" transform="translate(528.4375,105.625)"/>
<path d="M0 0 C2.475 0.495 2.475 0.495 5 1 C6 4 6 4 5.37 5.723 C5.016 6.353 4.662 6.984 4.297 7.633 C3.898 8.349 3.5 9.065 3.089 9.803 C2.647 10.569 2.205 11.336 1.75 12.125 C1.304 12.913 0.858 13.701 0.399 14.513 C-4.4 22.89 -9.651 30.967 -15 39 C-15.66 38.34 -16.32 37.68 -17 37 C-17.242 37.592 -17.485 38.183 -17.734 38.793 C-19.672 43.361 -21.499 47.382 -25 51 C-25.66 51 -26.32 51 -27 51 C-25.582 46.369 -23.696 42.116 -21.5 37.812 C-21.154 37.13 -20.808 36.447 -20.451 35.744 C-19.306 33.493 -18.153 31.247 -17 29 C-16.591 28.196 -16.182 27.393 -15.761 26.565 C-11.04 17.3 -6.399 8.242 0 0 Z " fill="#F3F3F3" transform="translate(495,294)"/>
<path d="M0 0 C-1.679 5.182 -4.79 9.327 -7.875 13.75 C-8.452 14.585 -9.029 15.419 -9.624 16.28 C-11.41 18.857 -13.204 21.429 -15 24 C-15.541 24.776 -16.082 25.553 -16.64 26.353 C-22.926 35.365 -29.335 44.264 -36 53 C-37.326 50.028 -36.958 48.887 -35.805 45.777 C-35.179 44.489 -34.534 43.209 -33.875 41.938 C-33.522 41.246 -33.168 40.554 -32.804 39.841 C-25.948 26.855 -17.377 14.419 -7 4 C-6.321 3.256 -5.641 2.512 -4.941 1.746 C-3 0 -3 0 0 0 Z " fill="#F3F3F3" transform="translate(426,440)"/>
<path d="M0 0 C0.99 0 1.98 0 3 0 C4.254 2.543 4.254 2.543 5 6 C3.782 8.767 2.621 10.856 0.938 13.312 C0.489 13.998 0.04 14.684 -0.423 15.39 C-4.969 22.214 -9.96 28.712 -15.02 35.16 C-17.793 38.698 -20.413 42.323 -23 46 C-24.22 42.231 -23.546 40.413 -21.751 36.873 C-21.4 36.214 -21.049 35.554 -20.688 34.875 C-20.149 33.836 -20.149 33.836 -19.6 32.775 C-18.416 30.508 -17.211 28.253 -16 26 C-15.582 25.215 -15.163 24.431 -14.732 23.622 C-13.457 21.242 -12.17 18.869 -10.875 16.5 C-10.48 15.772 -10.085 15.043 -9.678 14.292 C-3.976 4.023 -3.976 4.023 0 0 Z " fill="#F3F3F3" transform="translate(453,366)"/>
<path d="M0 0 C6.298 0.06 11.77 1.764 17 5.25 C15.534 9.033 13.666 10.383 10.188 12.375 C9.335 12.873 8.483 13.37 7.605 13.883 C0.241 17.747 0.241 17.747 -5 16.25 C-5.027 13.771 -5.047 11.292 -5.062 8.812 C-5.075 7.752 -5.075 7.752 -5.088 6.67 C-5.097 4.863 -5.052 3.056 -5 1.25 C-3.477 -0.273 -2.121 0.044 0 0 Z " fill="#F3F3F3" transform="translate(346,707.75)"/>
<path d="M0 0 C3 1 3 1 4.027 2.469 C7.548 10.325 9.242 18.613 11 27 C11.229 28.045 11.459 29.091 11.695 30.168 C13.377 38.754 13.186 47.292 13 56 C10.164 54.582 10.001 52.953 9 50 C8.651 48.369 8.355 46.727 8.105 45.078 C7.957 44.143 7.808 43.208 7.655 42.245 C7.501 41.257 7.347 40.268 7.188 39.25 C5.99 31.879 4.533 24.799 2.25 17.688 C0.293 11.588 -0.509 6.414 0 0 Z " fill="#E7E8E8" transform="translate(588,395)"/>
<path d="M0 0 C-3.642 6.374 -7.769 10.914 -13.562 15.312 C-14.139 15.767 -14.716 16.221 -15.311 16.689 C-19.627 20 -19.627 20 -23 20 C-23.7 18.736 -24.384 17.463 -25.062 16.188 C-25.445 15.48 -25.828 14.772 -26.223 14.043 C-27 12 -27 12 -26 9 C-24.389 7.941 -24.389 7.941 -22.324 6.992 C-21.578 6.645 -20.833 6.299 -20.064 5.941 C-19.28 5.589 -18.496 5.238 -17.688 4.875 C-16.915 4.515 -16.142 4.156 -15.346 3.785 C-10.068 1.362 -5.88 -0.163 0 0 Z " fill="#F3F3F3" transform="translate(292,156)"/>
<path d="M0 0 C1.929 0.233 1.929 0.233 4 1 C5.605 3.455 6.943 5.771 8.25 8.375 C8.614 9.061 8.977 9.747 9.352 10.453 C12 15.571 12 15.571 12 19 C6.72 19 1.44 19 -4 19 C-2.421 2.421 -2.421 2.421 0 0 Z " fill="#FEFEFE" transform="translate(650,721)"/>
<path d="M0 0 C-3.158 3.639 -6.066 5.044 -10.562 6.688 C-17.762 9.386 -24.626 12.616 -31.477 16.104 C-35.84 18.255 -39.008 19.527 -44 19 C-42.452 14.357 -38.76 13.358 -34.562 11.188 C-33.717 10.747 -32.871 10.306 -31.999 9.852 C-26.199 6.916 -20.35 4.441 -14.188 2.375 C-13.087 2.004 -13.087 2.004 -11.965 1.626 C-7.868 0.335 -4.29 -0.256 0 0 Z " fill="#E7E8E8" transform="translate(601,583)"/>
<path d="M0 0 C3 1 3 1 4 3 C4.076 12.735 2.406 24.188 -2 33 C-2.66 33 -3.32 33 -4 33 C-4.49 6.735 -4.49 6.735 0 0 Z " fill="#E7E8E8" transform="translate(553,333)"/>
<path d="M0 0 C0.66 0 1.32 0 2 0 C2.025 5.375 2.043 10.75 2.055 16.125 C2.06 17.955 2.067 19.784 2.075 21.614 C2.088 24.24 2.093 26.866 2.098 29.492 C2.103 30.313 2.108 31.134 2.113 31.98 C2.114 37.772 2.114 37.772 1 40 C0.34 40 -0.32 40 -1 40 C-2.92 36.759 -3.247 34.358 -3.23 30.613 C-3.229 29.593 -3.227 28.573 -3.225 27.521 C-3.212 26.463 -3.2 25.404 -3.188 24.312 C-3.187 23.242 -3.186 22.171 -3.186 21.068 C-3.14 13.14 -3.14 13.14 -2 12 C-1.792 10.171 -1.633 8.336 -1.5 6.5 C-1.111 1.111 -1.111 1.111 0 0 Z " fill="#FEFEFE" transform="translate(566,363)"/>
<path d="M0 0 C2 1 2 1 2.852 3.512 C3.107 4.56 3.362 5.608 3.625 6.688 C3.885 7.723 4.146 8.758 4.414 9.824 C5 13 5 13 5 19 C1.04 18.67 -2.92 18.34 -7 18 C-8.206 13.176 -6.97 11.353 -4.625 7.312 C-4.13 6.422 -4.13 6.422 -3.625 5.514 C-1.211 1.211 -1.211 1.211 0 0 Z " fill="#F3F3F3" transform="translate(293,711)"/>
<path d="M0 0 C5.233 1.64 10.152 3.39 15 6 C13.64 9.12 12.167 11.008 9.562 13.188 C8.667 13.951 8.667 13.951 7.754 14.73 C6 16 6 16 3 17 C0.707 11.103 -0.345 6.334 0 0 Z " fill="#F3F3F3" transform="translate(215,200)"/>
<path d="M0 0 C-1 2 -1 2 -3.105 3.062 C-6.514 4.166 -9.754 4.593 -13.312 5 C-17.402 5.488 -21.406 5.987 -25.375 7.125 C-29.676 8.163 -33.604 8.183 -38 8 C-38 7.34 -38 6.68 -38 6 C-24.878 1.356 -13.815 -0.309 0 0 Z " fill="#E7E8E8" transform="translate(646,578)"/>
<path d="M0 0 C0.66 0 1.32 0 2 0 C2.263 6.001 1.502 10.654 -0.438 16.312 C-0.668 17.014 -0.898 17.716 -1.135 18.439 C-1.746 20.297 -2.372 22.149 -3 24 C-3.33 24.99 -3.66 25.98 -4 27 C-4.66 27 -5.32 27 -6 27 C-8.114 22.773 -7.507 17.587 -7 13 C-5.29 8.247 -2.791 4.186 0 0 Z " fill="#F3F3F3" transform="translate(356,565)"/>
<path d="M0 0 C0.99 0 1.98 0 3 0 C-0.205 19.833 -0.205 19.833 -5 24 C-6.672 22.328 -6.251 20.358 -6.312 18.062 C-6.27 11.496 -4.767 4.767 0 0 Z " fill="#E7E8E8" transform="translate(391,569)"/>
<path d="M0 0 C7.575 6.172 9.821 15.746 11 25 C9.164 24.859 9.164 24.859 7 24 C5.586 21.453 5.586 21.453 4.375 18.25 C3.97 17.203 3.565 16.157 3.148 15.078 C2.769 14.062 2.39 13.047 2 12 C1.624 11.125 1.247 10.249 0.859 9.348 C-0.299 6.184 -0.131 3.337 0 0 Z " fill="#F3F3F3" transform="translate(614,441)"/>
<path d="M0 0 C1.688 0.938 1.688 0.938 2.688 2.938 C2.822 5.61 2.731 8.26 2.688 10.938 C1.27 10.795 -0.146 10.648 -1.562 10.5 C-2.746 10.378 -2.746 10.378 -3.953 10.254 C-6.136 9.961 -8.19 9.517 -10.312 8.938 C-8.713 4.618 -4.911 -0.133 0 0 Z " fill="#E7E8E8" transform="translate(677.3125,136.0625)"/>
<path d="M0 0 C1 3 1 3 -0.223 5.891 C-3.639 12.129 -6.93 17.93 -12 23 C-12.66 23 -13.32 23 -14 23 C-13.54 17.841 -11.678 14.471 -8.688 10.375 C-8.296 9.816 -7.905 9.256 -7.502 8.68 C-5.239 5.497 -2.847 2.671 0 0 Z " fill="#E7E8E8" transform="translate(382,462)"/>
<path d="M0 0 C-6.483 6.483 -23.148 4.626 -32 5 C-30 2 -30 2 -27.812 1.27 C-18.52 -0.24 -9.382 -0.188 0 0 Z " fill="#E7E8E8" transform="translate(702,585)"/>
<path d="M0 0 C-1 3 -1 3 -4.062 4.562 C-11.124 7.295 -17.423 8.316 -25 8 C-25 7.34 -25 6.68 -25 6 C-22.417 5.186 -19.834 4.374 -17.25 3.562 C-16.52 3.332 -15.791 3.102 -15.039 2.865 C-14.33 2.643 -13.621 2.421 -12.891 2.191 C-12.241 1.987 -11.592 1.783 -10.923 1.573 C-7.145 0.448 -3.967 -0.11 0 0 Z " fill="#E7E8E8" transform="translate(589,565)"/>
<path d="M0 0 C0.66 0 1.32 0 2 0 C2.058 3.771 2.094 7.541 2.125 11.312 C2.142 12.384 2.159 13.456 2.176 14.561 C2.182 15.589 2.189 16.617 2.195 17.676 C2.206 18.624 2.216 19.572 2.227 20.548 C2 23 2 23 0 26 C-4.017 19.974 -2.242 11.6 -1 4.75 C-0.678 3.164 -0.348 1.58 0 0 Z " fill="#A8A9A9" transform="translate(435,518)"/>
<path d="M0 0 C0.99 0.33 1.98 0.66 3 1 C3 6.28 3 11.56 3 17 C1.68 17.33 0.36 17.66 -1 18 C-2.856 16.144 -2.174 13.172 -2.188 10.688 C-2.202 9.536 -2.216 8.385 -2.23 7.199 C-2.013 4.176 -1.583 2.534 0 0 Z " fill="#D4D5D5" transform="translate(405,576)"/>
<path d="M0 0 C-3.676 5.514 -9.894 10.752 -16.312 12.703 C-16.869 12.801 -17.426 12.899 -18 13 C-17.448 9.263 -16.039 7.776 -13.188 5.375 C-12.5 4.785 -11.813 4.194 -11.105 3.586 C-7.313 0.729 -4.772 -0.265 0 0 Z " fill="#F3F3F3" transform="translate(470,388)"/>
<path d="M0 0 C0.99 0 1.98 0 3 0 C3.027 2.458 3.047 4.917 3.062 7.375 C3.071 8.074 3.079 8.772 3.088 9.492 C3.113 14.773 3.113 14.773 2 17 C1.01 16.67 0.02 16.34 -1 16 C-3.126 11.749 -2.433 6.327 -1 1.938 C-0.67 1.298 -0.34 0.659 0 0 Z " fill="#E7E8E8" transform="translate(432,578)"/>
<path d="M0 0 C0.66 0 1.32 0 2 0 C2 12.54 2 25.08 2 38 C1.67 38 1.34 38 1 38 C0.67 29.75 0.34 21.5 0 13 C-0.99 16.465 -0.99 16.465 -2 20 C-2.33 20 -2.66 20 -3 20 C-3.042 17.667 -3.041 15.333 -3 13 C-2.67 12.67 -2.34 12.34 -2 12 C-1.792 10.171 -1.633 8.336 -1.5 6.5 C-1.111 1.111 -1.111 1.111 0 0 Z " fill="#D4D5D5" transform="translate(566,363)"/>
<path d="M0 0 C-3.18 3.684 -6.202 5.113 -10.75 6.75 C-11.92 7.178 -13.091 7.606 -14.297 8.047 C-15.635 8.519 -15.635 8.519 -17 9 C-17.33 8.01 -17.66 7.02 -18 6 C-18.99 5.67 -19.98 5.34 -21 5 C-18.629 4.155 -16.254 3.324 -13.875 2.5 C-12.877 2.142 -12.877 2.142 -11.859 1.777 C-7.766 0.373 -4.389 -0.273 0 0 Z " fill="#D4D5D5" transform="translate(601,583)"/>
<path d="M0 0 C-1 3 -1 3 -3.109 4.387 C-3.981 4.816 -4.852 5.245 -5.75 5.688 C-7.042 6.343 -7.042 6.343 -8.359 7.012 C-11.11 8.041 -13.091 8.194 -16 8 C-16.33 7.01 -16.66 6.02 -17 5 C-15.299 4.152 -13.589 3.323 -11.875 2.5 C-10.924 2.036 -9.972 1.572 -8.992 1.094 C-5.788 -0.077 -3.383 -0.201 0 0 Z " fill="#E7E8E8" transform="translate(340,582)"/>
<path d="M0 0 C3.384 1.05 4.029 2.053 5.75 5.25 C6.935 8.805 7.271 11.297 7 15 C6.01 15.33 5.02 15.66 4 16 C1.182 10.451 -0.533 6.259 0 0 Z " fill="#D4D5D5" transform="translate(444,579)"/>
<path d="M0 0 C-1.394 4.015 -3.28 6.944 -5.938 10.25 C-6.627 11.121 -7.317 11.993 -8.027 12.891 C-10 15 -10 15 -13 16 C-12.665 10.637 -9.459 6.872 -6 3 C-2.428 0 -2.428 0 0 0 Z " fill="#F3F3F3" transform="translate(497,349)"/>
<path d="M0 0 C0.741 0.005 1.481 0.009 2.244 0.014 C4.059 0.025 5.873 0.043 7.688 0.062 C7.688 0.722 7.688 1.383 7.688 2.062 C0.59 3.407 -6.085 4.303 -13.312 4.062 C-13.312 3.072 -13.312 2.082 -13.312 1.062 C-8.875 -0.049 -4.543 -0.053 0 0 Z " fill="#F3F3F3" transform="translate(676.3125,575.9375)"/>
<path d="M0 0 C3 1 3 1 4.168 3.328 C4.504 4.292 4.841 5.257 5.188 6.25 C5.704 7.681 5.704 7.681 6.23 9.141 C6.976 11.911 7.151 14.149 7 17 C4.484 16.023 3.25 15.467 1.953 13.047 C0.583 8.57 -0.365 4.744 0 0 Z " fill="#E7E8E8" transform="translate(626,426)"/>
<path d="M0 0 C0.33 0.66 0.66 1.32 1 2 C-6.62 4.857 -13.97 5.167 -22 5 C-16.825 -0.175 -6.985 -0.403 0 0 Z " fill="#D4D5D5" transform="translate(634,567)"/>
<path d="M0 0 C-1 3 -1 3 -3.062 4.188 C-6.855 5.236 -10.071 5.133 -14 5 C-14 3.68 -14 2.36 -14 1 C-9.237 0.047 -4.833 -0.083 0 0 Z " fill="#F3F3F3" transform="translate(338,569)"/>
<path d="M0 0 C-1 3 -1 3 -3.062 4.688 C-6.966 6.432 -9.75 6.216 -14 6 C-13.011 3.304 -12.34 2.194 -9.812 0.75 C-6.458 -0.145 -3.457 -0.136 0 0 Z " fill="#E7E8E8" transform="translate(540,295)"/>
<path d="M0 0 C0 0.99 0 1.98 0 3 C-7.286 6.429 -7.286 6.429 -12 6 C-12 4.68 -12 3.36 -12 2 C-7.879 0.002 -4.548 -0.178 0 0 Z " fill="#DEDEDE" transform="translate(547,313)"/>
<path d="M0 0 C-1 3 -1 3 -2.672 3.949 C-6.563 5.332 -9.802 6.394 -14 6 C-14 5.01 -14 4.02 -14 3 C-9.07 0.96 -5.42 -0.407 0 0 Z " fill="#D4D5D5" transform="translate(387,563)"/>
<path d="M0 0 C3.901 1.3 4.311 2.76 6.25 6.312 C6.791 7.278 7.333 8.244 7.891 9.238 C9.055 12.137 9.158 13.165 8 16 C3.835 11.498 0 6.461 0 0 Z " fill="#D4D5D5" transform="translate(643,460)"/>
<path d="M0 0 C-1 3 -1 3 -3.688 4.688 C-7.09 6.036 -9.383 6.258 -13 6 C-12 3 -12 3 -9.312 1.312 C-5.91 -0.036 -3.617 -0.258 0 0 Z " fill="#E7E8E8" transform="translate(557,585)"/>
<path d="M0 0 C0.66 0 1.32 0 2 0 C1.736 6.344 -0.545 10.45 -5 15 C-5.66 15 -6.32 15 -7 15 C-5.455 9.521 -2.845 4.886 0 0 Z " fill="#D4D5D5" transform="translate(475,330)"/>
<path d="M0 0 C0.91 0.009 1.82 0.018 2.758 0.027 C3.456 0.039 4.155 0.051 4.875 0.062 C4.875 1.382 4.875 2.702 4.875 4.062 C3.25 4.089 1.625 4.109 0 4.125 C-1.357 4.142 -1.357 4.142 -2.742 4.16 C-5.125 4.062 -5.125 4.062 -7.125 3.062 C-7.125 2.402 -7.125 1.743 -7.125 1.062 C-4.6 -0.2 -2.813 -0.036 0 0 Z " fill="#D4D5D5" transform="translate(539.125,302.9375)"/>
<path d="M0 0 C0.66 0.33 1.32 0.66 2 1 C0.904 2.796 -0.202 4.587 -1.312 6.375 C-2.235 7.872 -2.235 7.872 -3.176 9.398 C-5 12 -5 12 -8 14 C-7.526 8.942 -4.992 4.99 -2 1 C-1.34 0.67 -0.68 0.34 0 0 Z " fill="#D4D5D5" transform="translate(368,497)"/>
<path d="M0 0 C2 2 2 2 2.266 4.277 C2.26 5.155 2.255 6.033 2.25 6.938 C2.255 7.813 2.26 8.688 2.266 9.59 C2 12 2 12 0 15 C-1 14 -1 14 -1.133 11.094 C-1.13 9.908 -1.128 8.722 -1.125 7.5 C-1.128 6.314 -1.13 5.128 -1.133 3.906 C-1 1 -1 1 0 0 Z " fill="#F3F3F3" transform="translate(435,529)"/>
<path d="M0 0 C-1.083 3.491 -2.105 4.055 -5.438 5.812 C-9 7 -9 7 -12 6 C-4.8 0 -4.8 0 0 0 Z " fill="#E7E8E8" transform="translate(505,317)"/>
<path d="M0 0 C5.94 0 11.88 0 18 0 C14.994 3.006 12.176 2.596 8 3 C8 2.34 8 1.68 8 1 C5.36 1 2.72 1 0 1 C0 0.67 0 0.34 0 0 Z " fill="#C9C9C9" transform="translate(684,585)"/>
<path d="M0 0 C0 0.33 0 0.66 0 1 C-1.98 1.33 -3.96 1.66 -6 2 C-5.34 2.66 -4.68 3.32 -4 4 C-6.97 4 -9.94 4 -13 4 C-13 3.01 -13 2.02 -13 1 C-8.591 -0.102 -4.516 -0.077 0 0 Z " fill="#BFBFBF" transform="translate(676,576)"/>
<path d="M0 0 C2.64 0 5.28 0 8 0 C8.33 0.66 8.66 1.32 9 2 C5.019 3.327 1.15 3.069 -3 3 C-2.01 2.67 -1.02 2.34 0 2 C0 1.34 0 0.68 0 0 Z " fill="#E7E8E8" transform="translate(626,567)"/>
<path d="M0 0 C-0.66 1.32 -1.32 2.64 -2 4 C-2.66 4 -3.32 4 -4 4 C-5.625 5.458 -5.625 5.458 -7 7 C-7.66 6.67 -8.32 6.34 -9 6 C-7.88 4.994 -6.754 3.995 -5.625 3 C-4.685 2.165 -4.685 2.165 -3.727 1.312 C-2 0 -2 0 0 0 Z " fill="#C9C9C9" transform="translate(497,349)"/>
</svg>